<svg xmlns="http://www.w3.org/2000/svg" aria-hidden="true" style="width:0;height:0;position:absolute;overflow:hidden"><defs><symbol id="icon-arrow-left" viewBox="0 0 32 32"><path d="m7.704 17.068-1.203-.818h22.876v-.64H6.644l1.133-.65-.319-.556-2.607 1.498 2.492 1.695.36-.53z"/></symbol><symbol id="icon-arrow-right" viewBox="0 0 32 32"><path d="m21.674 14.79 1.203.818L0 15.609v.64l22.733-.001-1.133.651.319.555 2.608-1.498-2.493-1.695-.36.529z"/></symbol><symbol id="btn-txt" viewBox="0 0 32 32"><path d="M15.192 3.749a.8.8 0 0 1-.715-.317l.063 1.015-.246.015-.154-2.49.236-.015.022.357a.759.759 0 0 1 .257-.284.87.87 0 0 1 .423-.134.91.91 0 0 1 .471.089.828.828 0 0 1 .346.305.972.972 0 0 1 .148.474c.011.185-.018.349-.088.492s-.172.259-.305.346a.906.906 0 0 1-.457.146zm-.031-.217a.691.691 0 0 0 .341-.108.655.655 0 0 0 .227-.264c.053-.112.076-.239.067-.38s-.046-.263-.113-.365a.658.658 0 0 0-.61-.303.655.655 0 0 0-.571.376c-.051.11-.072.235-.064.376s.045.264.11.369a.658.658 0 0 0 .258.234.712.712 0 0 0 .355.065zM12.461 4.088a.956.956 0 0 0 .49.004.966.966 0 0 0 .438-.226.867.867 0 0 0 .244-.397.95.95 0 0 0 .006-.497.934.934 0 0 0-.23-.441.846.846 0 0 0-.396-.241.955.955 0 0 0-.493-.004c-.173.041-.318.116-.435.225s-.198.24-.245.394a.928.928 0 0 0-.006.497.896.896 0 0 0 .627.685zm.76-.374a.704.704 0 0 1-.321.166.673.673 0 0 1-.354-.005.66.66 0 0 1-.294-.187.76.76 0 0 1-.175-.344c-.033-.139-.033-.268.001-.385s.094-.216.179-.296c.085-.082.191-.138.317-.168s.245-.028.358.007a.62.62 0 0 1 .29.184.76.76 0 0 1 .175.344.749.749 0 0 1-.001.385.648.648 0 0 1-.175.299zM10.256 3.046a.826.826 0 0 1 .391-.074c.126.006.241.05.344.131.105.08.193.201.263.363l.42.972-.226.098-.41-.949c-.076-.176-.178-.29-.306-.34-.127-.054-.269-.046-.429.023a.704.704 0 0 0-.281.208.531.531 0 0 0-.114.295.756.756 0 0 0 .07.355l.38.879-.226.098-1.021-2.364.226-.098.423.98a.66.66 0 0 1 .124-.29.857.857 0 0 1 .372-.285zM8.793 5.882a1.42 1.42 0 0 0 .394-.175 1.17 1.17 0 0 0 .31-.269.573.573 0 0 0 .121-.29.442.442 0 0 0-.072-.283.392.392 0 0 0-.404-.197.997.997 0 0 0-.239.057 3.072 3.072 0 0 0-.242.091 2.107 2.107 0 0 1-.224.08.504.504 0 0 1-.194.012.214.214 0 0 1-.14-.105.254.254 0 0 1-.018-.243c.036-.091.123-.18.262-.268.078-.049.163-.088.255-.116a.792.792 0 0 1 .283-.039l-.015-.225a.939.939 0 0 0-.311.053 1.35 1.35 0 0 0-.325.148 1.01 1.01 0 0 0-.297.27c-.067.094-.102.189-.107.285s.019.186.072.27a.452.452 0 0 0 .186.178.48.48 0 0 0 .223.035.993.993 0 0 0 .236-.055c.082-.03.163-.062.243-.096s.155-.061.224-.08a.386.386 0 0 1 .187-.016c.057.008.103.04.139.097a.258.258 0 0 1 .02.246c-.036.086-.128.175-.274.267a1.086 1.086 0 0 1-.658.174l.01.224a.926.926 0 0 0 .354-.031zM6.277 8.194l-1.788-.77.164-.17 1.51.662-.705-1.496.147-.152 1.517.655-.71-1.492.157-.162.832 1.761-.161.167-1.475-.624.675 1.453-.161.167zM4.945 9.927a.96.96 0 0 0 .357-.335.97.97 0 0 0 .161-.466.866.866 0 0 0-.098-.456.957.957 0 0 0-.339-.364.936.936 0 0 0-.471-.16.846.846 0 0 0-.453.1.962.962 0 0 0-.359.338c-.097.15-.15.304-.159.463s.022.311.095.454a.947.947 0 0 0 .339.364.902.902 0 0 0 .927.062zm.291-.795a.701.701 0 0 1-.117.341.685.685 0 0 1-.259.241.656.656 0 0 1-.342.068.766.766 0 0 1-.364-.128c-.12-.078-.209-.171-.266-.279s-.082-.221-.075-.338c.005-.118.042-.232.113-.34s.158-.19.264-.242a.617.617 0 0 1 .337-.067c.122.007.243.05.364.128.119.077.207.17.266.279a.636.636 0 0 1 .08.337zM2.613 10.728a.842.842 0 0 1 .231-.324.59.59 0 0 1 .339-.143.878.878 0 0 1 .441.081l.975.412-.096.227-.952-.403c-.177-.075-.329-.086-.456-.035-.129.049-.227.153-.294.313a.703.703 0 0 0-.059.344c.01.107.05.205.121.292.07.085.168.154.296.208l.882.373-.096.227-1.678-.71.092-.217.305.129a.654.654 0 0 1-.123-.312.86.86 0 0 1 .072-.463zM3.292 14.916a.848.848 0 0 0 .169-.407.915.915 0 0 0-.049-.477c-.058-.149-.149-.272-.275-.37s-.28-.16-.463-.187a.961.961 0 0 0-.494.046.815.815 0 0 0-.37.275.92.92 0 0 0-.185.443.856.856 0 0 0 .044.441c.046.12.121.223.224.31l-.354-.052-.034.233 2.468.363.036-.244-1.006-.148a.822.822 0 0 0 .29-.227zm-.086-.777c.042.109.054.228.035.356s-.065.24-.137.334a.663.663 0 0 1-.283.204c-.116.041-.244.052-.383.031s-.258-.067-.355-.14a.66.66 0 0 1-.25-.637.663.663 0 0 1 .423-.534.739.739 0 0 1 .381-.035.76.76 0 0 1 .358.144.668.668 0 0 1 .212.277zM3.326 16.821a.952.952 0 0 1-.105.478.89.89 0 0 1-.321.338.942.942 0 0 1-.479.134c-.183.005-.344-.031-.485-.108s-.253-.184-.335-.321a.954.954 0 0 1-.131-.472.953.953 0 0 1 .105-.482.846.846 0 0 1 .317-.338.928.928 0 0 1 .479-.134.95.95 0 0 1 .485.108.862.862 0 0 1 .338.321.973.973 0 0 1 .131.476zm-.218.006a.706.706 0 0 0-.096-.348.64.64 0 0 0-.256-.233.76.76 0 0 0-.377-.08.751.751 0 0 0-.372.1.617.617 0 0 0-.24.246c-.057.103-.084.22-.081.349a.663.663 0 0 0 .353.58.75.75 0 0 0 .377.08.763.763 0 0 0 .372-.1.655.655 0 0 0 .243-.25.678.678 0 0 0 .077-.346zM28.75 16.696a1.453 1.453 0 0 0-.087.422 1.17 1.17 0 0 0 .039.409.565.565 0 0 0 .165.267c.075.065.166.1.272.106a.4.4 0 0 0 .395-.214.947.947 0 0 0 .093-.227c.025-.082.048-.165.067-.25.019-.082.04-.159.065-.229a.467.467 0 0 1 .104-.164.214.214 0 0 1 .166-.053.253.253 0 0 1 .208.127c.053.082.075.205.066.369a1.063 1.063 0 0 1-.054.275.82.82 0 0 1-.133.253l.191.119a.952.952 0 0 0 .138-.284c.039-.116.062-.233.069-.351a1.025 1.025 0 0 0-.046-.399c-.038-.109-.094-.193-.169-.253s-.163-.093-.262-.099a.444.444 0 0 0-.253.048.48.48 0 0 0-.159.161.958.958 0 0 0-.093.224c-.024.084-.045.169-.063.254s-.041.161-.065.229a.39.39 0 0 1-.096.161.192.192 0 0 1-.16.057.26.26 0 0 1-.212-.127c-.049-.079-.068-.206-.058-.379.008-.127.034-.247.08-.36a1.08 1.08 0 0 1 .162-.276l-.188-.122a.934.934 0 0 0-.181.306zM30.043 19.858a.824.824 0 0 0 .166-.362.868.868 0 0 0-.017-.469.655.655 0 0 0-.165-.27l1.044.224.052-.241-2.517-.54-.052.241.936.201a.752.752 0 0 1 .33.149.538.538 0 0 1 .174.264.694.694 0 0 1 .007.349c-.036.17-.113.29-.23.362-.115.075-.267.092-.455.051l-1.011-.217-.052.241 1.035.222a.886.886 0 0 0 .448-.003.591.591 0 0 0 .306-.204zM27.766 21.145a.95.95 0 0 1 .29-.395.898.898 0 0 1 .922-.109c.169.069.302.168.4.295s.157.27.177.429a.946.946 0 0 1-.071.485.941.941 0 0 1-.291.398.84.84 0 0 1-.427.181.935.935 0 0 1-.492-.071.95.95 0 0 1-.4-.295.869.869 0 0 1-.18-.43.977.977 0 0 1 .072-.488zm.203.083a.696.696 0 0 0-.053.357.641.641 0 0 0 .14.316.769.769 0 0 0 .312.226c.133.054.26.074.381.059a.616.616 0 0 0 .319-.128c.094-.071.166-.167.215-.287a.67.67 0 0 0-.088-.673.757.757 0 0 0-.313-.226.762.762 0 0 0-.381-.059.663.663 0 0 0-.323.13.678.678 0 0 0-.21.285zM27.034 22.887a.848.848 0 0 0-.319.303.908.908 0 0 0-.148.456c-.008.159.026.309.102.45s.191.26.348.359c.155.098.312.15.471.158a.816.816 0 0 0 .45-.102.921.921 0 0 0 .348-.33.87.87 0 0 0 .139-.421.751.751 0 0 0-.08-.374l.302.191.126-.2-2.11-1.331-.131.208.86.542a.808.808 0 0 0-.357.091zm-.237.745c.005-.117.043-.23.112-.34s.156-.193.26-.25a.662.662 0 0 1 .341-.072c.123.009.244.051.363.127s.208.166.268.272a.67.67 0 0 1 .082.339c-.005.12-.042.235-.111.344s-.156.191-.262.245c-.105.054-.219.078-.341.072s-.243-.046-.362-.122-.209-.167-.269-.276a.67.67 0 0 1-.082-.339zM25.988 26.966a.83.83 0 0 1-.342.205.594.594 0 0 1-.368-.004.886.886 0 0 1-.372-.25l-.729-.767.178-.17.712.749c.132.139.267.21.404.214.137.007.269-.05.395-.169a.689.689 0 0 0 .191-.292.535.535 0 0 0 .006-.317.757.757 0 0 0-.189-.309l-.66-.694.178-.17 1.255 1.32-.171.163-.228-.24a.659.659 0 0 1-.012.335.865.865 0 0 1-.251.396zM23.523 26.771a.956.956 0 0 0-.461.166.97.97 0 0 0-.333.364.868.868 0 0 0-.091.457.96.96 0 0 0 .167.469.951.951 0 0 0 .369.334.839.839 0 0 0 .455.088.961.961 0 0 0 .464-.168c.148-.099.258-.22.33-.362s.103-.294.093-.454a.94.94 0 0 0-.167-.469.905.905 0 0 0-.826-.425zm-.583.614a.709.709 0 0 1 .243-.267.686.686 0 0 1 .334-.119.66.66 0 0 1 .341.073c.11.057.205.144.283.262.08.119.124.24.133.362s-.013.235-.065.34c-.051.106-.131.196-.238.268s-.221.111-.339.118a.612.612 0 0 1-.336-.072.74.74 0 0 1-.283-.262.76.76 0 0 1-.133-.362.641.641 0 0 1 .06-.341zM21.597 27.832l1.332 1.42-.218.09-1.12-1.21.049 1.653-.196.081-1.129-1.207.055 1.651-.208.086-.059-1.947.215-.089 1.103 1.161-.038-1.602.215-.089zM18.329 28.941a1.416 1.416 0 0 0-.431.001 1.145 1.145 0 0 0-.393.121.569.569 0 0 0-.228.216.449.449 0 0 0-.049.288.399.399 0 0 0 .289.343 1 1 0 0 0 .242.045c.085.008.172.013.258.015.084.002.164.007.238.018a.473.473 0 0 1 .182.068.218.218 0 0 1 .086.152.255.255 0 0 1-.082.23c-.069.069-.185.115-.348.139a1.049 1.049 0 0 1-.28.003.78.78 0 0 1-.275-.079l-.078.211a.963.963 0 0 0 .306.078c.121.015.241.014.357-.003a1.03 1.03 0 0 0 .381-.126c.099-.059.17-.131.213-.217s.058-.178.043-.276a.446.446 0 0 0-.098-.238.484.484 0 0 0-.19-.123.994.994 0 0 0-.238-.046c-.087-.006-.174-.009-.261-.011s-.166-.007-.238-.018a.383.383 0 0 1-.177-.061.194.194 0 0 1-.088-.145.26.26 0 0 1 .081-.233c.068-.064.187-.108.359-.134a1.113 1.113 0 0 1 .672.108l.081-.209a.937.937 0 0 0-.336-.115zM15.845 30.938a.826.826 0 0 1-.388-.09.59.59 0 0 1-.262-.259.888.888 0 0 1-.094-.438l.008-1.058.246.002-.008 1.034c-.001.192.046.337.142.435.094.1.228.151.401.152a.703.703 0 0 0 .341-.077.537.537 0 0 0 .224-.224.751.751 0 0 0 .079-.353l.007-.958.246.002-.02 2.574-.246-.002.008-1.067a.667.667 0 0 1-.231.216.875.875 0 0 1-.455.111zM14.206 29.086a.95.95 0 0 0-.446-.201.966.966 0 0 0-.492.03.876.876 0 0 0-.384.265.945.945 0 0 0-.206.453.934.934 0 0 0 .033.496.838.838 0 0 0 .266.38.95.95 0 0 0 .45.202c.175.032.338.022.489-.031s.278-.14.383-.262a.938.938 0 0 0 .206-.453.908.908 0 0 0-.298-.88zm-.846.036a.69.69 0 0 1 .36-.022.682.682 0 0 1 .322.147.668.668 0 0 1 .194.29.75.75 0 0 1 .021.385c-.026.141-.078.259-.156.352s-.173.16-.283.199c-.111.041-.23.05-.358.026s-.236-.074-.325-.151a.612.612 0 0 1-.191-.285.747.747 0 0 1-.021-.385.76.76 0 0 1 .156-.353.64.64 0 0 1 .28-.203zM11.543 28.277a.862.862 0 0 1 .363.249.798.798 0 0 1 .162.33l.354-.953.231.086-.868 2.339-.221-.082.124-.335a.751.751 0 0 1-.35.155.857.857 0 0 1-.441-.049.913.913 0 0 1-.395-.272.809.809 0 0 1-.192-.419.972.972 0 0 1 .057-.493c.064-.174.158-.312.28-.414s.262-.167.419-.192a.921.921 0 0 1 .477.051zm-.059.211a.698.698 0 0 0-.355-.04.668.668 0 0 0-.315.15c-.094.081-.166.188-.215.32s-.064.259-.045.38a.656.656 0 0 0 .435.524.69.69 0 0 0 .36.037.668.668 0 0 0 .315-.15c.091-.08.161-.186.21-.318s.065-.259.049-.381a.656.656 0 0 0-.141-.319.717.717 0 0 0-.298-.203zM7.427 28.042a.82.82 0 0 0 .27.293.87.87 0 0 0 .439.165.656.656 0 0 0 .33-.056l-.189.272.194.135 1.039-1.496-.202-.141-.546.787a.75.75 0 0 1-.265.247.54.54 0 0 1-.311.059.713.713 0 0 1-.325-.128c-.143-.099-.224-.216-.245-.352-.024-.135.018-.282.128-.439l.59-.849-.202-.141-.604.869a.893.893 0 0 0-.17.414.588.588 0 0 0 .07.361zM7.135 25.469c.125.123.21.263.256.418a.898.898 0 0 1 .003.466.95.95 0 0 1-.252.429c-.128.13-.27.216-.425.258s-.31.042-.464.001a.94.94 0 0 1-.421-.25.947.947 0 0 1-.258-.42.85.85 0 0 1-.006-.464.942.942 0 0 1 .252-.429.94.94 0 0 1 .425-.258.858.858 0 0 1 .466-.003.966.966 0 0 1 .424.252zm-.153.155a.637.637 0 0 0-.657-.174.755.755 0 0 0-.327.204.746.746 0 0 0-.199.33.61.61 0 0 0-.002.344c.03.114.092.217.184.308a.663.663 0 0 0 .656.174.739.739 0 0 0 .327-.204.773.773 0 0 0 .199-.33.656.656 0 0 0 .002-.349.678.678 0 0 0-.184-.303zM4.848 25.819l1.116-1.595-.131-.192-1.56.367.91-1.318-.131-.192-1.894.458.127.186 1.605-.393-.949 1.352.119.175 1.608-.388-.954 1.344.133.195zM4.116 20.836c.052.141.082.281.09.422a.95.95 0 0 1-.043.353l-.221-.037a1.106 1.106 0 0 0-.033-.679c-.06-.163-.129-.27-.205-.323a.257.257 0 0 0-.245-.031.19.19 0 0 0-.123.116.382.382 0 0 0-.023.186c.005.072.015.151.032.236s.031.171.044.258a.987.987 0 0 1 .005.242.477.477 0 0 1-.081.211.441.441 0 0 1-.212.145c-.093.035-.186.04-.279.015s-.179-.079-.257-.164a1.01 1.01 0 0 1-.203-.347 1.352 1.352 0 0 1-.078-.349.922.922 0 0 1 .013-.316l.223.032a.786.786 0 0 0-.02.285c.008.096.029.187.061.274.057.154.126.258.208.312a.258.258 0 0 0 .242.033.214.214 0 0 0 .131-.115.48.48 0 0 0 .029-.192 1.924 1.924 0 0 0-.032-.236 2.775 2.775 0 0 1-.039-.256 1.024 1.024 0 0 1-.006-.246.391.391 0 0 1 .276-.354.445.445 0 0 1 .292-.012.567.567 0 0 1 .258.178c.078.09.144.209.2.359zM1.756 18.883a.83.83 0 0 0-.008.398.865.865 0 0 0 .203.423.65.65 0 0 0 .259.181l-1.046.212.049.242 2.523-.511-.049-.242-.939.19a.744.744 0 0 1-.362-.005.533.533 0 0 1-.265-.173.705.705 0 0 1-.146-.317c-.034-.17-.012-.311.066-.424.076-.114.208-.191.396-.229l1.013-.205-.049-.241-1.037.21a.89.89 0 0 0-.409.182.588.588 0 0 0-.199.309zM19.165 2.296a.828.828 0 0 0-.365-.159.859.859 0 0 0-.468.026.657.657 0 0 0-.28.184l.063-.325-.232-.045-.348 1.788.242.047.183-.94a.759.759 0 0 1 .143-.333.538.538 0 0 1 .261-.179.69.69 0 0 1 .349-.013c.17.033.293.108.367.223.077.114.097.265.06.454l-.198 1.015.242.047.202-1.039a.877.877 0 0 0-.012-.448.587.587 0 0 0-.21-.302zM20.456 4.527a.964.964 0 0 1-.402-.28.896.896 0 0 1-.13-.92c.065-.171.161-.306.286-.407s.267-.163.425-.186a.941.941 0 0 1 .486.06.967.967 0 0 1 .405.282.843.843 0 0 1 .191.423.934.934 0 0 1-.06.494.96.96 0 0 1-.286.407.87.87 0 0 1-.426.19.972.972 0 0 1-.489-.061zm.079-.204a.704.704 0 0 0 .358.045.647.647 0 0 0 .313-.147.757.757 0 0 0 .218-.318.753.753 0 0 0 .05-.382.62.62 0 0 0-.135-.316c-.073-.093-.171-.162-.291-.209a.659.659 0 0 0-.671.103.76.76 0 0 0-.219.318.77.77 0 0 0-.05.382.663.663 0 0 0 .137.32c.074.09.171.158.29.204zM22.457 3.307l-.391 1.907.197.124 1.286-.956-.312 1.57.197.124 1.556-1.172-.191-.12-1.317.998.334-1.618-.179-.113-1.322.994.342-1.613-.2-.126zM25.095 7.565a1.424 1.424 0 0 1-.251-.351.96.96 0 0 1-.102-.341l.217-.055a1.113 1.113 0 0 0 .303.609c.12.125.226.196.318.214a.261.261 0 0 0 .237-.069c.048-.047.071-.098.067-.156a.384.384 0 0 0-.053-.18c-.033-.064-.074-.132-.124-.203s-.097-.144-.143-.219a1.01 1.01 0 0 1-.102-.22.495.495 0 0 1-.011-.226.449.449 0 0 1 .136-.218c.072-.069.155-.111.25-.125s.195.001.301.047a.992.992 0 0 1 .324.237c.082.085.152.181.211.288.06.106.099.204.115.294l-.217.06a.78.78 0 0 0-.096-.269 1.042 1.042 0 0 0-.165-.226c-.114-.118-.219-.186-.315-.202a.255.255 0 0 0-.234.067.212.212 0 0 0-.074.158.48.48 0 0 0 .05.187c.035.066.076.134.124.203.05.071.096.144.138.218a.971.971 0 0 1 .104.223.4.4 0 0 1 .016.221.403.403 0 0 1-.126.214.448.448 0 0 1-.263.128.565.565 0 0 1-.308-.06 1.164 1.164 0 0 1-.327-.249zM28.05 8.413a.838.838 0 0 0-.153-.368.86.86 0 0 0-.356-.305.663.663 0 0 0-.31-.062l.872-.615-.142-.201-2.104 1.484.142.201.783-.552a.759.759 0 0 1 .333-.142.534.534 0 0 1 .312.051.69.69 0 0 1 .261.232c.1.142.137.28.11.415-.024.135-.114.258-.27.369l-.845.596.142.201.865-.61a.882.882 0 0 0 .301-.331.585.585 0 0 0 .058-.363zM27.442 10.925a.958.958 0 0 1-.096-.48.913.913 0 0 1 .157-.439.956.956 0 0 1 .384-.316c.165-.078.328-.11.488-.096s.305.067.436.159c.13.092.234.218.31.38.077.163.11.324.098.483a.842.842 0 0 1-.154.437.945.945 0 0 1-.384.316.952.952 0 0 1-.488.096.868.868 0 0 1-.439-.157.97.97 0 0 1-.311-.383zm.198-.093a.692.692 0 0 0 .228.28.643.643 0 0 0 .328.11.76.76 0 0 0 .377-.078.74.74 0 0 0 .3-.242.66.66 0 0 0 .053-.674.672.672 0 0 0-.23-.275c-.096-.067-.205-.105-.327-.114s-.248.017-.377.078a.75.75 0 0 0-.3.242.661.661 0 0 0-.122.326.685.685 0 0 0 .068.348zM28.225 12.61a.866.866 0 0 0 .009.44.917.917 0 0 0 .237.417c.113.113.246.189.401.228s.321.034.5-.015a.956.956 0 0 0 .434-.242.822.822 0 0 0 .228-.401.912.912 0 0 0-.01-.48.852.852 0 0 0-.218-.386.753.753 0 0 0-.33-.193l.345-.095-.063-.227-2.405.662.065.238.98-.27a.795.795 0 0 0-.173.325zm.392.677c-.083-.083-.141-.187-.176-.312s-.037-.245-.009-.361a.666.666 0 0 1 .176-.3c.09-.085.202-.146.338-.183s.263-.042.381-.015a.664.664 0 0 1 .485.482.67.67 0 0 1 .005.358c-.031.114-.09.214-.176.3s-.198.148-.334.185-.264.042-.385.012a.664.664 0 0 1-.305-.168z"/></symbol><symbol id="btn-arrow" viewBox="0 0 32 32"><path d="M11.079 18.921a.193.193 0 1 0 .205.327l-.204-.327zm10.098-5.922a.193.193 0 0 0-.144-.231l-1.69-.39a.193.193 0 0 0-.087.375l1.503.347-.347 1.503a.193.193 0 0 0 .375.087l.39-1.69zm-9.894 6.249 9.809-6.129-.204-.327-9.809 6.129.204.327z"/></symbol><symbol id="icon-burger" viewBox="0 0 32 32"><path d="M4 5.333h24V8H4V5.333zm8 9.334h16v2.667H12v-2.667zM4 24h24v2.667H4V24z"/></symbol><symbol id="icon-checked" viewBox="0 0 32 32"><path fill="#3cbc81" d="M0 16C0 7.163 7.163 0 16 0s16 7.163 16 16-7.163 16-16 16S0 24.837 0 16zm23.237-2.763c.315-.317.51-.754.51-1.237a1.746 1.746 0 0 0-2.985-1.236l-6.763 6.762-2.763-2.762c-.317-.315-.754-.51-1.237-.51a1.746 1.746 0 0 0-1.236 2.985l4 4c.317.315.754.51 1.237.51s.92-.195 1.237-.511l8-8z" style="fill:var(--color1,#3cbc81)"/></symbol><symbol id="icon-close" viewBox="0 0 32 32"><path fill="none" stroke-linecap="round" stroke-linejoin="round" stroke-width="2.667" d="M24 8 8 24M8 8l16 16"/></symbol><symbol id="icon-Error-logo" viewBox="0 0 32 32"><path fill="#e74a3b" d="M0 16C0 7.163 7.163 0 16 0s16 7.163 16 16-7.163 16-16 16S0 24.837 0 16zm10.938-2.994 2.944 2.938-2.944 2.992c-.581.589-.581 1.539 0 2.07.587.637 1.536.637 2.069 0l2.938-2.888 2.992 2.888c.589.637 1.539.637 2.07 0 .637-.531.637-1.482 0-2.069l-2.888-2.994 2.888-2.938c.637-.531.637-1.482 0-2.069-.531-.581-1.482-.581-2.069 0l-2.994 2.944-2.938-2.944c-.531-.581-1.482-.581-2.069 0-.581.587-.581 1.536 0 2.069z" style="fill:var(--color3,#e74a3b)"/></symbol><symbol id="icon-facebook" viewBox="0 0 32 32"><path fill="none" stroke="#fff" stroke-linecap="round" stroke-linejoin="round" stroke-width="2.286" d="M24 2.666h-4a6.666 6.666 0 0 0-6.666 6.666v4.001h-4v5.333h4v10.667h5.334V18.666h4l1.333-5.333h-5.333v-4c0-.736.596-1.333 1.332-1.334h4V2.665z" style="stroke:var(--color2,#fff)"/></symbol><symbol id="icon-instagram" viewBox="0 0 32 32"><path fill="none" stroke="#fff" stroke-linecap="round" stroke-linejoin="round" stroke-width="2.286" d="M22.666 2.666H9.332a6.666 6.666 0 0 0-6.666 6.666v13.335a6.666 6.666 0 0 0 6.666 6.666h13.334a6.666 6.666 0 0 0 6.666-6.666v-.001 0V9.332a6.666 6.666 0 0 0-6.666-6.666v0z" style="stroke:var(--color2,#fff)"/><path fill="none" stroke="#fff" stroke-linecap="round" stroke-linejoin="round" stroke-width="2.286" d="M21.334 15.16a5.334 5.334 0 1 1-10.548 1.594l-.004-.029A5.334 5.334 0 0 1 21.33 15.13l.004.03zm2-6.494h.013" style="stroke:var(--color2,#fff)"/></symbol><symbol id="icon-logo" viewBox="0 0 32 32"><path d="M13.081 28.274v-4.068l-.105-.666v-6.803c0-1.566-.444-2.77-1.333-3.612-.865-.842-2.162-1.262-3.893-1.262-1.192 0-2.326.199-3.402.596s-1.987.924-2.735 1.578L.491 12.178c.935-.795 2.057-1.403 3.367-1.824a12.793 12.793 0 0 1 4.138-.666c2.385 0 4.22.596 5.506 1.789 1.309 1.169 1.964 2.958 1.964 5.365v11.432h-2.385zm-6.348.175c-1.38 0-2.583-.222-3.612-.666-1.005-.468-1.777-1.099-2.315-1.894-.538-.818-.807-1.753-.807-2.805 0-.959.222-1.824.666-2.595.468-.795 1.216-1.426 2.244-1.894 1.052-.491 2.455-.736 4.208-.736h6.347v1.859H7.187c-1.777 0-3.016.316-3.717.947-.678.631-1.017 1.415-1.017 2.35 0 1.052.409 1.894 1.227 2.525s1.964.947 3.437.947c1.403 0 2.607-.316 3.612-.947 1.029-.654 1.777-1.59 2.244-2.805l.561 1.718c-.468 1.216-1.286 2.186-2.455 2.911-1.145.725-2.595 1.087-4.348 1.087z"/><path d="M23.391 28.449c-1.917 0-3.601-.398-5.05-1.192-1.45-.818-2.584-1.929-3.402-3.332-.818-1.426-1.227-3.051-1.227-4.875s.386-3.437 1.157-4.839c.795-1.403 1.87-2.502 3.226-3.296 1.379-.818 2.922-1.227 4.629-1.227 1.73 0 3.261.398 4.594 1.192 1.356.771 2.42 1.87 3.191 3.296.771 1.403 1.157 3.028 1.157 4.875 0 .117-.012.245-.035.386v.386H15.605v-1.859h14.694l-.982.736c0-1.333-.292-2.513-.877-3.542-.561-1.052-1.333-1.87-2.315-2.455s-2.116-.877-3.402-.877c-1.262 0-2.396.292-3.402.877s-1.788 1.403-2.35 2.455-.842 2.256-.842 3.612v.386c0 1.403.304 2.642.912 3.717a6.811 6.811 0 0 0 2.595 2.49c1.122.584 2.396.877 3.822.877 1.122 0 2.162-.199 3.121-.596a6.489 6.489 0 0 0 2.525-1.824l1.403 1.613c-.818.982-1.847 1.73-3.086 2.244-1.216.514-2.56.771-4.033.771zm6.242-22.531H17.359v-2.63h12.274v2.63z"/></symbol><symbol id="icon-tel" viewBox="0 0 32 32"><path d="m26.331 6.267-3.346-3.344c-.392-.394-.934-.638-1.534-.638s-1.142.244-1.534.638l-3.606 3.599c-.394.393-.638.936-.638 1.537s.244 1.144.638 1.537l2.816 2.818a12.813 12.813 0 0 1-2.715 4 12.798 12.798 0 0 1-3.916 2.69l-.082.032-2.815-2.819c-.392-.394-.934-.638-1.534-.638s-1.142.244-1.534.638l-3.608 3.599c-.394.393-.638.936-.638 1.537s.244 1.144.638 1.537l3.344 3.343a3.765 3.765 0 0 0 2.647 1.097c.205 0 .402-.016.603-.05 4.16-.686 8.29-2.901 11.625-6.232 3.331-3.337 5.544-7.466 6.235-11.63a3.732 3.732 0 0 0-1.047-3.249zM25.15 9.143c-.613 3.705-2.606 7.4-5.607 10.401s-6.694 4.994-10.4 5.606a1.474 1.474 0 0 1-1.281-.415l-3.285-3.283 3.482-3.486 3.793 3.8.679-.251c4.177-1.566 7.414-4.803 8.945-8.876l.034-.104.251-.679-3.797-3.794 3.482-3.483 3.285 3.283c.339.339.496.817.417 1.282z"/></symbol><symbol id="icon-footer-logo" viewBox="0 0 78 58"><path d="M18.72 14.2c5.867 0 10.347 1.44 13.44 4.32 3.147 2.88 4.72 7.173 4.72 12.88V57H29.6v-5.6c-1.28 1.973-3.12 3.493-5.52 4.56-2.347 1.013-5.147 1.52-8.4 1.52-4.747 0-8.56-1.147-11.44-3.44C1.413 51.747 0 48.733 0 45c0-3.733 1.36-6.72 4.08-8.96 2.72-2.293 7.04-3.44 12.96-3.44H29.2v-1.52c0-3.307-.96-5.84-2.88-7.6-1.92-1.76-4.747-2.64-8.48-2.64-2.507 0-4.96.427-7.36 1.28-2.4.8-4.427 1.893-6.08 3.28l-3.2-5.76c2.187-1.76 4.8-3.093 7.84-4 3.04-.96 6.267-1.44 9.68-1.44Zm-1.76 37.36c2.933 0 5.467-.64 7.6-1.92 2.133-1.333 3.68-3.2 4.64-5.6v-5.92H17.36c-6.507 0-9.76 2.187-9.76 6.56 0 2.133.827 3.813 2.48 5.04 1.653 1.227 3.947 1.84 6.88 1.84Z" fill="#fff"/><path d="M73.6 36.04c0 .587-.053 1.36-.16 2.32h-34.4c.48 3.733 2.107 6.747 4.88 9.04 2.826 2.24 6.32 3.36 10.48 3.36 5.067 0 9.147-1.707 12.24-5.12l4.24 4.96c-1.92 2.24-4.32 3.947-7.2 5.12-2.827 1.173-6 1.76-9.52 1.76-4.48 0-8.453-.907-11.92-2.72-3.467-1.867-6.16-4.453-8.08-7.76-1.867-3.307-2.8-7.04-2.8-11.2 0-4.107.907-7.813 2.72-11.12 1.867-3.307 4.4-5.867 7.6-7.68 3.253-1.867 6.907-2.8 10.96-2.8 4.053 0 7.653.933 10.8 2.8 3.2 1.813 5.68 4.373 7.44 7.68 1.813 3.307 2.72 7.093 2.72 11.36ZM52.64 20.68c-3.68 0-6.773 1.12-9.28 3.36-2.453 2.24-3.893 5.173-4.32 8.8h27.2c-.427-3.573-1.893-6.48-4.4-8.72-2.454-2.293-5.52-3.44-9.2-3.44Z" fill="#fff"/><path fill-rule="evenodd" clip-rule="evenodd" d="M68 6H40V0h28v6Z" fill="#fff"/></symbol></defs></svg>