<svg xmlns="http://www.w3.org/2000/svg" aria-hidden="true" style="position:absolute;width:0;height:0;overflow:hidden"><defs>
<symbol id="icon-arrow-left" viewBox="0 0 32 32"><path d="m7.704 17.068-1.203-.818h22.876v-.64H6.644l1.133-.65-.319-.556-2.607 1.498 2.492 1.695.36-.53z"/></symbol>
<symbol id="icon-arrow-right" viewBox="0 0 32 32"><path d="m21.674 14.79 1.203.818L0 15.609v.64l22.733-.001-1.133.651.319.555 2.608-1.498-2.493-1.695-.36.529z"/></symbol>

<symbol id="btn-txt" viewBox="0 0 32 32">
      <path d="M15.192 3.749c-0.157 0.010-0.301-0.017-0.433-0.081-0.111-0.056-0.205-0.134-0.282-0.236l0.063 1.015-0.246 0.015-0.154-2.49 0.236-0.015 0.022 0.357c0.064-0.119 0.149-0.214 0.257-0.284 0.123-0.079 0.264-0.124 0.423-0.134 0.173-0.011 0.33 0.019 0.471 0.089 0.143 0.068 0.258 0.169 0.346 0.305 0.087 0.134 0.136 0.292 0.148 0.474 0.011 0.185-0.018 0.349-0.088 0.492s-0.172 0.259-0.305 0.346c-0.131 0.087-0.284 0.136-0.457 0.146zM15.161 3.532c0.129-0.008 0.243-0.044 0.341-0.108 0.098-0.066 0.174-0.154 0.227-0.264 0.053-0.112 0.076-0.239 0.067-0.38s-0.046-0.263-0.113-0.365c-0.067-0.103-0.153-0.181-0.258-0.234s-0.223-0.077-0.352-0.069c-0.129 0.008-0.244 0.045-0.344 0.112-0.098 0.066-0.174 0.154-0.227 0.264-0.051 0.11-0.072 0.235-0.064 0.376s0.045 0.264 0.11 0.369c0.067 0.103 0.153 0.181 0.258 0.234 0.107 0.051 0.226 0.073 0.355 0.065z"></path>
      <path d="M12.461 4.088c0.155 0.044 0.319 0.045 0.49 0.004 0.173-0.041 0.319-0.117 0.438-0.226 0.118-0.111 0.2-0.244 0.244-0.397 0.046-0.156 0.048-0.322 0.006-0.497-0.042-0.178-0.119-0.325-0.23-0.441-0.109-0.117-0.241-0.197-0.396-0.241-0.153-0.044-0.318-0.046-0.493-0.004-0.173 0.041-0.318 0.116-0.435 0.225s-0.198 0.24-0.245 0.394c-0.047 0.154-0.049 0.32-0.006 0.497 0.042 0.175 0.119 0.322 0.23 0.441 0.111 0.116 0.243 0.198 0.397 0.244zM13.221 3.714c-0.086 0.080-0.193 0.135-0.321 0.166-0.124 0.030-0.242 0.028-0.354-0.005-0.113-0.035-0.211-0.097-0.294-0.187-0.084-0.092-0.142-0.206-0.175-0.344-0.033-0.139-0.033-0.268 0.001-0.385s0.094-0.216 0.179-0.296c0.085-0.082 0.191-0.138 0.317-0.168s0.245-0.028 0.358 0.007c0.112 0.033 0.209 0.094 0.29 0.184 0.083 0.090 0.141 0.204 0.175 0.344 0.033 0.137 0.033 0.266-0.001 0.385-0.032 0.117-0.090 0.216-0.175 0.299z"></path>
      <path d="M10.256 3.046c0.136-0.059 0.266-0.083 0.391-0.074 0.126 0.006 0.241 0.050 0.344 0.131 0.105 0.080 0.193 0.201 0.263 0.363l0.42 0.972-0.226 0.098-0.41-0.949c-0.076-0.176-0.178-0.29-0.306-0.34-0.127-0.054-0.269-0.046-0.429 0.023-0.119 0.051-0.212 0.121-0.281 0.208-0.067 0.084-0.105 0.183-0.114 0.295-0.008 0.109 0.015 0.228 0.070 0.355l0.38 0.879-0.226 0.098-1.021-2.364 0.226-0.098 0.423 0.98c0.017-0.104 0.058-0.201 0.124-0.29 0.087-0.121 0.21-0.216 0.372-0.285z"></path>
      <path d="M8.793 5.882c0.136-0.036 0.267-0.095 0.394-0.175 0.135-0.085 0.238-0.175 0.31-0.269 0.072-0.098 0.113-0.194 0.121-0.29 0.009-0.099-0.015-0.193-0.072-0.283-0.053-0.084-0.114-0.14-0.184-0.167-0.069-0.031-0.142-0.040-0.22-0.030-0.077 0.008-0.157 0.027-0.239 0.057-0.082 0.027-0.162 0.057-0.242 0.091-0.078 0.033-0.153 0.059-0.224 0.080-0.071 0.017-0.136 0.021-0.194 0.012-0.056-0.011-0.103-0.046-0.14-0.105-0.047-0.074-0.053-0.155-0.018-0.243 0.036-0.091 0.123-0.18 0.262-0.268 0.078-0.049 0.163-0.088 0.255-0.116 0.091-0.030 0.185-0.043 0.283-0.039l-0.015-0.225c-0.092-0.002-0.195 0.015-0.311 0.053-0.117 0.036-0.225 0.085-0.325 0.148-0.131 0.083-0.23 0.173-0.297 0.27-0.067 0.094-0.102 0.189-0.107 0.285s0.019 0.186 0.072 0.27c0.056 0.088 0.118 0.147 0.186 0.178 0.070 0.029 0.145 0.041 0.223 0.035 0.077-0.008 0.156-0.026 0.236-0.055 0.082-0.030 0.163-0.062 0.243-0.096s0.155-0.061 0.224-0.080c0.069-0.021 0.131-0.027 0.187-0.016 0.057 0.008 0.103 0.040 0.139 0.097 0.048 0.076 0.055 0.158 0.020 0.246-0.036 0.086-0.128 0.175-0.274 0.267-0.108 0.068-0.221 0.116-0.34 0.145-0.12 0.027-0.226 0.036-0.318 0.029l0.010 0.224c0.099 0.014 0.217 0.004 0.354-0.031z"></path>
      <path d="M6.277 8.194l-1.788-0.77 0.164-0.17 1.51 0.662-0.705-1.496 0.147-0.152 1.517 0.655-0.71-1.492 0.157-0.162 0.832 1.761-0.161 0.167-1.475-0.624 0.675 1.453-0.161 0.167z"></path>
      <path d="M4.945 9.927c0.143-0.076 0.262-0.188 0.357-0.335 0.097-0.15 0.15-0.305 0.161-0.466 
      0.009-0.162-0.024-0.314-0.098-0.456-0.075-0.145-0.188-0.266-0.339-0.364-0.153-0.099-0.31-0.153-0.471-0.16-0.159-0.009-0.31 0.024-0.453 0.1-0.141 0.074-0.261 0.187-0.359 0.338-0.097 0.15-0.15 0.304-0.159 0.463s0.022 0.311 0.095 0.454c0.073 0.143 0.186 0.265 0.339 0.364 0.152 0.098 0.309 0.151 0.471 0.16 0.161 0.007 0.312-0.025 0.456-0.098zM5.236 9.132c-0.007 0.117-0.046 0.231-0.117 0.341-0.069 0.107-0.156 0.187-0.259 0.241-0.106 0.053-0.22 0.076-0.342 0.068-0.124-0.009-0.245-0.051-0.364-0.128-0.12-0.078-0.209-0.171-0.266-0.279s-0.082-0.221-0.075-0.338c0.005-0.118 0.042-0.232 0.113-0.34s0.158-0.19 0.264-0.242c0.104-0.054 0.216-0.076 0.337-0.067 0.122 0.007 0.243 0.050 0.364 0.128 0.119 0.077 0.207 0.17 0.266 0.279 0.058 0.106 0.085 0.219 0.080 0.337z"></path>
      <path d="M2.613 10.728c0.058-0.136 0.135-0.244 0.231-0.324 0.095-0.083 0.208-0.13 0.339-0.143 0.132-0.015 0.279 0.012 0.441 0.081l0.975 0.412-0.096 0.227-0.952-0.403c-0.177-0.075-0.329-0.086-0.456-0.035-0.129 0.049-0.227 0.153-0.294 0.313-0.050 0.119-0.070 0.234-0.059 0.344 0.010 0.107 0.050 0.205 0.121 0.292 0.070 0.085 0.168 0.154 0.296 0.208l0.882 0.373-0.096 0.227-1.678-0.71 0.092-0.217 0.305 0.129c-0.067-0.091-0.108-0.194-0.123-0.312-0.021-0.147 0.003-0.301 0.072-0.463z"></path>
      <path d="M3.292 14.916c0.090-0.115 0.146-0.251 0.169-0.407 0.025-0.172 0.009-0.331-0.049-0.477-0.058-0.149-0.149-0.272-0.275-0.37s-0.28-0.16-0.463-0.187c-0.181-0.027-0.346-0.011-0.494 0.046-0.151 0.057-0.275 0.149-0.37 0.275-0.098 0.124-0.159 0.271-0.185 0.443-0.023 0.158-0.009 0.305 0.044 0.441 0.046 0.12 0.121 0.223 0.224 0.31l-0.354-0.052-0.034 0.233 2.468 0.363 0.036-0.244-1.006-0.148c0.116-0.055 0.212-0.131 0.29-0.227zM3.206 14.139c0.042 0.109 0.054 0.228 0.035 0.356s-0.065 0.24-0.137 0.334c-0.074 0.092-0.169 0.16-0.283 0.204-0.116 0.041-0.244 0.052-0.383 0.031s-0.258-0.067-0.355-0.14c-0.097-0.075-0.167-0.167-0.212-0.277-0.044-0.112-0.057-0.232-0.038-0.36s0.066-0.238 0.14-0.33c0.074-0.092 0.169-0.16 0.283-0.204s0.241-0.056 0.381-0.035c0.14 0.021 0.259 0.068 0.358 0.144 0.096 0.075 0.167 0.167 0.212 0.277z"></path>
      <path d="M3.326 16.821c0.005 0.176-0.030 0.335-0.105 0.478-0.077 0.141-0.184 0.254-0.321 0.338-0.139 0.085-0.299 0.13-0.479 0.134-0.183 0.005-0.344-0.031-0.485-0.108s-0.253-0.184-0.335-0.321c-0.082-0.137-0.126-0.294-0.131-0.472-0.005-0.18 0.030-0.341 0.105-0.482 0.075-0.143 0.181-0.256 0.317-0.338 0.137-0.085 0.296-0.13 0.479-0.134 0.18-0.005 0.342 0.031 0.485 0.108 0.141 0.075 0.254 0.182 0.338 0.321 0.082 0.139 0.126 0.297 0.131 0.476zM3.108 16.827c-0.004-0.132-0.036-0.248-0.096-0.348-0.063-0.1-0.148-0.178-0.256-0.233-0.11-0.057-0.236-0.084-0.377-0.080-0.143 0.004-0.267 0.037-0.372 0.1-0.105 0.061-0.185 0.143-0.24 0.246-0.057 0.103-0.084 0.22-0.081 0.349s0.037 0.244 0.1 0.344c0.061 0.1 0.145 0.179 0.253 0.236s0.234 0.084 0.377 0.080c0.141-0.004 0.265-0.037 0.372-0.1 0.105-0.063 0.186-0.146 0.243-0.25 0.055-0.103 0.081-0.219 0.077-0.346z"></path>
      <path d="M28.75 16.696c-0.049 0.132-0.078 0.272-0.087 0.422-0.009 0.159 0.004 0.296 0.039 0.409 0.037 0.116 0.092 0.205 0.165 0.267 0.075 0.065 0.166 0.1 0.272 0.106 0.099 0.006 0.18-0.012 0.243-0.052 0.065-0.038 0.115-0.092 0.152-0.162 0.039-0.067 0.070-0.143 0.093-0.227 0.025-0.082 0.048-0.165 0.067-0.25 0.019-0.082 0.040-0.159 0.065-0.229 0.027-0.068 0.062-0.123 0.104-0.164 0.042-0.039 0.097-0.057 0.166-0.053 0.088 0.005 0.157 0.047 0.208 0.127 0.053 0.082 0.075 0.205 0.066 0.369-0.005 0.092-0.024 0.184-0.054 0.275-0.029 0.091-0.073 0.175-0.133 0.253l0.191 0.119c0.055-0.073 0.101-0.168 0.138-0.284 0.039-0.116 0.062-0.233 0.069-0.351 0.009-0.155-0.007-0.288-0.046-0.399-0.038-0.109-0.094-0.193-0.169-0.253s-0.163-0.093-0.262-0.099c-0.104-0.006-0.188 0.010-0.253 0.048-0.065 0.040-0.118 0.094-0.159 0.161-0.039 0.067-0.070 0.142-0.093 0.224-0.024 0.084-0.045 0.169-0.063 0.254s-0.041 0.161-0.065 0.229c-0.023 0.068-0.055 0.122-0.096 0.161-0.039 0.042-0.093 0.061-0.16 0.057-0.090-0.005-0.161-0.048-0.212-0.127-0.049-0.079-0.068-0.206-0.058-0.379 0.008-0.127 0.034-0.247 0.080-0.36 0.048-0.113 0.102-0.205 0.162-0.276l-0.188-0.122c-0.069 0.072-0.129 0.174-0.181 0.306z"></path>
      <path d="M30.043 19.858c0.080-0.096 0.135-0.217 0.166-0.362 0.037-0.172 0.031-0.328-0.017-0.469-0.035-0.106-0.089-0.196-0.165-0.27l1.044 0.224 0.052-0.241-2.517-0.54-0.052 0.241 0.936 0.201c0.136 0.029 0.246 0.079 0.33 0.149 0.086 0.073 0.144 0.161 0.174 0.264 0.032 0.106 0.034 0.223 0.007 0.349-0.036 0.17-0.113 0.29-0.23 0.362-0.115 0.075-0.267 0.092-0.455 0.051l-1.011-0.217-0.052 0.241 1.035 0.222c0.172 0.037 0.321 0.036 0.448-0.003 0.126-0.037 0.228-0.105 0.306-0.204z"></path>
      <path d="M27.766 21.145c0.067-0.163 0.163-0.295 0.29-0.395 0.128-0.098 0.271-0.158 0.43-0.18 0.161-0.021 0.325 0.002 0.492 0.071 0.169 0.069 0.302 0.168 0.4 0.295s0.157 0.27 0.177 0.429c0.020 0.158-0.003 0.32-0.071 0.485-0.068 0.167-0.165 0.3-0.291 0.398-0.126 0.101-0.269 0.161-0.427 0.181-0.159 0.022-0.323-0.001-0.492-0.071-0.167-0.068-0.3-0.167-0.4-0.295-0.099-0.125-0.158-0.269-0.18-0.43-0.019-0.16 0.005-0.323 0.072-0.488zM27.969 21.228c-0.050 0.122-0.068 0.241-0.053 0.357 0.017 0.117 0.064 0.222 0.14 0.316 0.078 0.097 0.182 0.172 0.312 0.226 0.133 0.054 0.26 0.074 0.381 0.059 0.12-0.013 0.227-0.056 0.319-0.128 0.094-0.071 0.166-0.167 0.215-0.287s0.065-0.238 0.048-0.355c-0.015-0.116-0.060-0.222-0.136-0.318s-0.18-0.171-0.313-0.226c-0.131-0.054-0.258-0.073-0.381-0.059-0.121 0.015-0.229 0.059-0.323 0.13-0.092 0.072-0.162 0.167-0.21 0.285z"></path>
      <path d="M27.034 22.887c-0.129 0.069-0.235 0.17-0.319 0.303-0.093 0.147-0.142 0.299-0.148 0.456-0.008 0.159 0.026 0.309 0.102 0.45s0.191 0.26 0.348 0.359c0.155 0.098 0.312 0.15 0.471 0.158 0.161 0.009 0.311-0.025 0.45-0.102 0.139-0.073 0.255-0.184 0.348-0.33 0.085-0.135 0.131-0.275 0.139-0.421 0.006-0.128-0.020-0.253-0.080-0.374l0.302 0.191 0.126-0.2-2.11-1.331-0.131 0.208 0.86 0.542c-0.128 0.003-0.247 0.034-0.357 0.091zM26.797 23.632c0.005-0.117 0.043-0.23 0.112-0.34s0.156-0.193 0.26-0.25c0.105-0.054 0.219-0.078 0.341-0.072 0.123 0.009 0.244 0.051 0.363 0.127s0.208 0.166 0.268 0.272c0.058 0.108 0.085 0.221 0.082 0.339-0.005 0.12-0.042 0.235-0.111 0.344s-0.156 0.191-0.262 0.245c-0.105 0.054-0.219 0.078-0.341 0.072s-0.243-0.046-0.362-0.122-0.209-0.167-0.269-0.276c-0.058-0.108-0.085-0.221-0.082-0.339z"></path>
      <path d="M25.988 26.966c-0.107 0.102-0.221 0.17-0.342 0.205-0.12 0.038-0.243 0.036-0.368-0.004-0.127-0.039-0.251-0.123-0.372-0.25l-0.729-0.767 0.178-0.17 0.712 0.749c0.132 0.139 0.267 0.21 0.404 0.214 0.137 0.007 0.269-0.050 0.395-0.169 0.094-0.089 0.158-0.187 0.191-0.292 0.034-0.102 0.036-0.208 0.006-0.317-0.030-0.105-0.093-0.208-0.189-0.309l-0.66-0.694 0.178-0.17 1.255 1.32-0.171 0.163-0.228-0.24c0.025 0.11 0.021 0.221-0.012 0.335-0.040 0.143-0.123 0.275-0.251 0.396z"></path>
      <path d="M23.523 26.771c-0.161 0.013-0.315 0.068-0.461 0.166-0.148 0.099-0.259 0.22-0.333 0.364-0.072 0.146-0.103 0.298-0.091 0.457 0.011 0.162 0.067 0.318 0.167 0.469 0.102 0.152 0.225 0.263 0.369 0.334 0.142 0.072 0.294 0.101 0.455 0.088 0.159-0.012 0.314-0.068 0.464-0.168 0.148-0.099 0.258-0.22 0.33-0.362s0.103-0.294 0.093-0.454c-0.010-0.16-0.065-0.317-0.167-0.469-0.1-0.15-0.223-0.261-0.369-0.334-0.145-0.070-0.297-0.101-0.457-0.091zM22.94 27.385c0.053-0.104 0.134-0.194 0.243-0.267 0.106-0.071 0.217-0.11 0.334-0.119 0.118-0.007 0.232 0.018 0.341 0.073 0.11 0.057 0.205 0.144 0.283 0.262 0.080 0.119 0.124 0.24 0.133 0.362s-0.013 0.235-0.065 0.34c-0.051 0.106-0.131 0.196-0.238 0.268s-0.221 0.111-0.339 0.118c-0.117 0.008-0.229-0.015-0.336-0.072-0.109-0.055-0.204-0.142-0.283-0.262-0.078-0.117-0.123-0.238-0.133-0.362-0.011-0.121 0.009-0.234 0.060-0.341z"></path>
      <path d="M21.597 27.832l1.332 1.42-0.218 0.090-1.12-1.21 0.049 1.653-0.196 0.081-1.129-1.207 0.055 1.651-0.208 0.086-0.059-1.947 0.215-0.089 1.103 1.161-0.038-1.602 0.215-0.089z"></path>
      <path d="M18.329 28.941c-0.139-0.022-0.283-0.021-0.431 0.001-0.158 0.023-0.289 0.063-0.393 0.121-0.106 0.060-0.182 0.132-0.228 0.216-0.048 0.087-0.064 0.183-0.049 0.288 0.015 0.099 0.048 0.174 0.1 0.227 0.050 0.056 0.113 0.094 0.189 0.116 0.074 0.024 0.154 0.039 0.242 0.045 0.085 0.008 0.172 0.013 0.258 0.015 0.084 0.002 0.164 0.007 0.238 0.018 0.072 0.013 0.133 0.035 0.182 0.068 0.047 0.033 0.075 0.084 0.086 0.152 0.013 0.087-0.014 0.163-0.082 0.23-0.069 0.069-0.185 0.115-0.348 0.139-0.092 0.014-0.185 0.014-0.28 0.003-0.095-0.009-0.186-0.035-0.275-0.079l-0.078 0.211c0.083 0.039 0.185 0.065 0.306 0.078 0.121 0.015 0.241 0.014 0.357-0.003 0.153-0.023 0.28-0.065 0.381-0.126 0.099-0.059 0.17-0.131 0.213-0.217s0.058-0.178 0.043-0.276c-0.015-0.103-0.048-0.182-0.098-0.238-0.053-0.056-0.116-0.096-0.19-0.123-0.074-0.024-0.153-0.040-0.238-0.046-0.087-0.006-0.174-0.009-0.261-0.011s-0.166-0.007-0.238-0.018c-0.071-0.008-0.131-0.029-0.177-0.061-0.049-0.030-0.078-0.079-0.088-0.145-0.013-0.089 0.014-0.167 0.081-0.233 0.068-0.064 0.187-0.108 0.359-0.134 0.126-0.019 0.249-0.017 0.369 0.005 0.12 0.024 0.221 0.059 0.303 0.103l0.081-0.209c-0.085-0.053-0.197-0.091-0.336-0.115z"></path>
      <path d="M15.845 30.938c-0.148-0.001-0.277-0.031-0.388-0.090-0.113-0.056-0.2-0.143-0.262-0.259-0.064-0.116-0.095-0.262-0.094-0.438l0.008-1.058 0.246 0.002-0.008 1.034c-0.001 0.192 0.046 0.337 0.142 0.435 0.094 0.1 0.228 0.151 0.401 0.152 0.13 0.001 0.243-0.025 0.341-0.077 0.095-0.050 0.17-0.125 0.224-0.224 0.052-0.097 0.078-0.215 0.079-0.353l0.007-0.958 0.246 0.002-0.020 2.574-0.246-0.002 0.008-1.067c-0.057 0.088-0.134 0.16-0.231 0.216-0.128 0.075-0.28 0.112-0.455 0.111z"></path>
      <path d="M14.206 29.086c-0.125-0.103-0.273-0.17-0.446-0.201-0.175-0.032-0.339-0.022-0.492 0.030-0.153 0.054-0.281 0.143-0.384 0.265-0.105 0.124-0.174 0.275-0.206 0.453-0.033 0.18-0.022 0.345 0.033 0.496 0.052 0.151 0.141 0.277 0.266 0.38 0.122 0.102 0.272 0.17 0.45 0.202 0.175 0.032 0.338 0.022 0.489-0.031s0.278-0.14 0.383-0.262c0.105-0.122 0.173-0.273 0.206-0.453 0.032-0.178 0.022-0.343-0.033-0.496-0.055-0.151-0.143-0.279-0.265-0.384zM13.36 29.122c0.111-0.039 0.231-0.046 0.36-0.022 0.125 0.023 0.233 0.072 0.322 0.147 0.089 0.078 0.154 0.174 0.194 0.29 0.040 0.118 0.047 0.246 0.021 0.385-0.026 0.141-0.078 0.259-0.156 0.352s-0.173 0.16-0.283 0.199c-0.111 0.041-0.23 0.050-0.358 0.026s-0.236-0.074-0.325-0.151c-0.090-0.075-0.153-0.17-0.191-0.285-0.040-0.115-0.047-0.244-0.021-0.385 0.025-0.139 0.077-0.256 0.156-0.353 0.076-0.094 0.169-0.162 0.28-0.203z"></path>
      <path d="M11.543 28.277c0.148 0.055 0.268 0.138 0.363 0.249 0.079 0.096 0.133 0.206 0.162 0.33l0.354-0.953 0.231 0.086-0.868 2.339-0.221-0.082 0.124-0.335c-0.106 0.083-0.223 0.135-0.35 0.155-0.144 0.023-0.291 0.007-0.441-0.049-0.163-0.060-0.294-0.151-0.395-0.272-0.104-0.12-0.168-0.259-0.192-0.419-0.025-0.157-0.006-0.322 0.057-0.493 0.064-0.174 0.158-0.312 0.28-0.414s0.262-0.167 0.419-0.192c0.155-0.026 0.314-0.009 0.477 0.051zM11.484 28.488c-0.121-0.045-0.24-0.058-0.355-0.040-0.116 0.021-0.221 0.071-0.315 0.15-0.094 0.081-0.166 0.188-0.215 0.32s-0.064 0.259-0.045 0.38 0.066 0.227 0.141 0.319c0.075 0.092 0.172 0.16 0.294 0.205s0.241 0.057 0.36 0.037c0.116-0.021 0.221-0.071 0.315-0.15 0.091-0.080 0.161-0.186 0.21-0.318s0.065-0.259 0.049-0.381c-0.019-0.121-0.066-0.227-0.141-0.319-0.078-0.090-0.177-0.158-0.298-0.203z"></path>
      <path d="M7.427 28.042c0.058 0.111 0.148 0.209 0.27 0.293 0.144 0.1 0.291 0.155 0.439 0.165 0.118 0.009 0.228-0.009 0.33-0.056l-0.189 0.272 0.194 0.135 1.039-1.496-0.202-0.141-0.546 0.787c-0.079 0.114-0.167 0.196-0.265 0.247-0.1 0.051-0.204 0.071-0.311 0.059-0.11-0.012-0.218-0.055-0.325-0.128-0.143-0.099-0.224-0.216-0.245-0.352-0.024-0.135 0.018-0.282 0.128-0.439l0.59-0.849-0.202-0.141-0.604 0.869c-0.1 0.144-0.157 0.283-0.17 0.414-0.015 0.131 0.009 0.251 0.070 0.361z"></path>
      <path d="M7.135 25.469c0.125 0.123 0.21 0.263 0.256 0.418 0.042 0.155 0.043 0.311 0.003 0.466-0.041 0.157-0.125 0.3-0.252 0.429-0.128 0.13-0.27 0.216-0.425 0.258s-0.31 0.042-0.464 0.001c-0.154-0.041-0.295-0.125-0.421-0.25-0.129-0.127-0.215-0.267-0.258-0.42-0.045-0.155-0.047-0.31-0.006-0.464 0.040-0.156 0.124-0.299 0.252-0.429 0.127-0.129 0.268-0.215 0.425-0.258 0.153-0.044 0.309-0.045 0.466-0.003 0.156 0.043 0.297 0.127 0.424 0.252zM6.982 25.624c-0.094-0.093-0.197-0.154-0.311-0.184-0.115-0.029-0.23-0.025-0.346 0.010-0.119 0.035-0.228 0.103-0.327 0.204-0.101 0.102-0.167 0.212-0.199 0.33-0.034 0.116-0.034 0.231-0.002 0.344 0.030 0.114 0.092 0.217 0.184 0.308s0.196 0.151 0.31 0.179c0.113 0.030 0.228 0.029 0.346-0.005s0.227-0.101 0.327-0.204c0.099-0.101 0.165-0.211 0.199-0.33 0.032-0.118 0.033-0.234 0.002-0.349-0.032-0.113-0.093-0.214-0.184-0.303z"></path>
      <path d="M4.848 25.819l1.116-1.595-0.131-0.192-1.56 0.367 0.91-1.318-0.131-0.192-1.894 0.458 0.127 0.186 1.605-0.393-0.949 1.352 0.119 0.175 1.608-0.388-0.954 1.344 0.133 0.195z"></path>
      <path d="M4.116 20.836c0.052 0.141 0.082 0.281 0.090 0.422 0.005 0.141-0.009 0.259-0.043 0.353l-0.221-0.037c0.026-0.089 0.039-0.195 0.038-0.317-0.003-0.122-0.027-0.243-0.071-0.362-0.060-0.163-0.129-0.27-0.205-0.323-0.079-0.052-0.16-0.063-0.245-0.031-0.063 0.023-0.104 0.062-0.123 0.116-0.022 0.053-0.030 0.115-0.023 0.186 0.005 0.072 0.015 0.151 0.032 0.236s0.031 0.171 0.044 0.258c0.012 0.084 0.013 0.165 0.005 0.242-0.011 0.078-0.037 0.148-0.081 0.211-0.044 0.061-0.115 0.109-0.212 0.145-0.093 0.035-0.186 0.040-0.279 0.015s-0.179-0.079-0.257-0.164c-0.081-0.086-0.149-0.201-0.203-0.347-0.041-0.111-0.067-0.227-0.078-0.349-0.013-0.121-0.009-0.226 0.013-0.316l0.223 0.032c-0.024 0.095-0.031 0.19-0.020 0.285 0.008 0.096 0.029 0.187 0.061 0.274 0.057 0.154 0.126 0.258 0.208 0.312 0.079 0.052 0.159 0.063 0.242 0.033 0.065-0.024 0.109-0.063 0.131-0.115 0.022-0.055 0.031-0.119 0.029-0.192-0.005-0.075-0.016-0.153-0.032-0.236-0.017-0.085-0.030-0.17-0.039-0.256-0.012-0.087-0.014-0.168-0.006-0.246 0.005-0.079 0.030-0.148 0.074-0.209 0.041-0.062 0.108-0.11 0.202-0.145 0.1-0.037 0.197-0.041 0.292-0.012 0.092 0.028 0.178 0.087 0.258 0.178 0.078 0.090 0.144 0.209 0.2 0.359z"></path>
      <path d="M1.756 18.883c-0.035 0.12-0.037 0.253-0.008 0.398 0.035 0.172 0.102 0.313 0.203 0.423 0.074 0.083 0.16 0.144 0.259 0.181l-1.046 0.212 0.049 0.242 2.523-0.511-0.049-0.242-0.939 0.19c-0.136 0.028-0.257 0.026-0.362-0.005-0.108-0.032-0.196-0.090-0.265-0.173-0.071-0.085-0.12-0.19-0.146-0.317-0.034-0.17-0.012-0.311 0.066-0.424 0.076-0.114 0.208-0.191 0.396-0.229l1.013-0.205-0.049-0.241-1.037 0.21c-0.172 0.035-0.309 0.096-0.409 0.182-0.101 0.084-0.167 0.187-0.199 0.309z"></path>
      <path d="M19.165 2.296c-0.098-0.078-0.22-0.131-0.365-0.159-0.173-0.034-0.329-0.025-0.468 0.026-0.112 0.039-0.205 0.1-0.28 0.184l0.063-0.325-0.232-0.045-0.348 1.788 0.242 0.047 0.183-0.94c0.027-0.136 0.074-0.247 0.143-0.333 0.071-0.087 0.158-0.147 0.261-0.179 0.106-0.034 0.222-0.038 0.349-0.013 0.17 0.033 0.293 0.108 0.367 0.223 0.077 0.114 0.097 0.265 0.060 0.454l-0.198 1.015 0.242 0.047 0.202-1.039c0.034-0.173 0.030-0.322-0.012-0.448-0.039-0.125-0.109-0.226-0.21-0.302z"></path>
      <path d="M20.456 4.527c-0.164-0.063-0.298-0.156-0.402-0.28-0.101-0.125-0.164-0.267-0.19-0.426-0.025-0.161-0.005-0.325 0.060-0.494 0.065-0.171 0.161-0.306 0.286-0.407s0.267-0.163 0.425-0.186c0.158-0.024 0.32-0.004 0.486 0.060 0.168 0.065 0.303 0.159 0.405 0.282 0.104 0.124 0.167 0.265 0.191 0.423 0.026 0.159 0.006 0.323-0.060 0.494-0.065 0.168-0.16 0.304-0.286 0.407-0.123 0.101-0.265 0.165-0.426 0.19-0.16 0.023-0.323 0.002-0.489-0.061zM20.535 4.323c0.123 0.047 0.242 0.062 0.358 0.045 0.116-0.020 0.221-0.069 0.313-0.147 0.095-0.080 0.168-0.186 0.218-0.318 0.051-0.134 0.068-0.261 0.050-0.382-0.016-0.12-0.061-0.225-0.135-0.316-0.073-0.093-0.171-0.162-0.291-0.209s-0.24-0.060-0.356-0.040c-0.116 0.018-0.221 0.065-0.315 0.143s-0.167 0.184-0.219 0.318c-0.050 0.132-0.067 0.259-0.050 0.382 0.018 0.121 0.064 0.228 0.137 0.32 0.074 0.090 0.171 0.158 0.29 0.204z"></path>
      <path d="M22.457 3.307l-0.391 1.907 0.197 0.124 1.286-0.956-0.312 1.57 0.197 0.124 1.556-1.172-0.191-0.12-1.317 0.998 0.334-1.618-0.179-0.113-1.322 0.994 0.342-1.613-0.2-0.126z"></path>
      <path d="M25.095 7.565c-0.104-0.108-0.188-0.225-0.251-0.351-0.061-0.127-0.095-0.241-0.102-0.341l0.217-0.055c0.011 0.092 0.042 0.194 0.093 0.306 0.052 0.111 0.122 0.212 0.21 0.303 0.12 0.125 0.226 0.196 0.318 0.214 0.093 0.016 0.172-0.007 0.237-0.069 0.048-0.047 0.071-0.098 0.067-0.156-0.001-0.057-0.018-0.117-0.053-0.18-0.033-0.064-0.074-0.132-0.124-0.203s-0.097-0.144-0.143-0.219c-0.045-0.073-0.078-0.146-0.102-0.22-0.021-0.076-0.025-0.151-0.011-0.226 0.016-0.073 0.062-0.146 0.136-0.218 0.072-0.069 0.155-0.111 0.25-0.125s0.195 0.001 0.301 0.047c0.109 0.046 0.217 0.125 0.324 0.237 0.082 0.085 0.152 0.181 0.211 0.288 0.060 0.106 0.099 0.204 0.115 0.294l-0.217 0.060c-0.016-0.097-0.048-0.187-0.096-0.269-0.046-0.084-0.101-0.16-0.165-0.226-0.114-0.118-0.219-0.186-0.315-0.202-0.093-0.016-0.171 0.006-0.234 0.067-0.050 0.048-0.075 0.101-0.074 0.158 0.002 0.059 0.019 0.121 0.050 0.187 0.035 0.066 0.076 0.134 0.124 0.203 0.050 0.071 0.096 0.144 0.138 0.218 0.046 0.074 0.081 0.149 0.104 0.223 0.026 0.074 0.032 0.148 0.016 0.221-0.013 0.073-0.055 0.145-0.126 0.214-0.077 0.074-0.164 0.116-0.263 0.128-0.095 0.011-0.198-0.008-0.308-0.060-0.107-0.051-0.216-0.134-0.327-0.249z"></path>
      <path d="M28.050 8.413c-0.017-0.124-0.068-0.247-0.153-0.368-0.101-0.144-0.22-0.245-0.356-0.305-0.101-0.046-0.204-0.067-0.31-0.062l0.872-0.615-0.142-0.201-2.104 1.484 0.142 0.201 0.783-0.552c0.113-0.080 0.224-0.127 0.333-0.142 0.112-0.014 0.216 0.003 0.312 0.051 0.1 0.049 0.187 0.126 0.261 0.232 0.1 0.142 0.137 0.28 0.11 0.415-0.024 0.135-0.114 0.258-0.27 0.369l-0.845 0.596 0.142 0.201 0.865-0.61c0.144-0.101 0.244-0.212 0.301-0.331 0.059-0.118 0.078-0.239 0.058-0.363z"></path>
      <path d="M27.442 10.925c-0.075-0.159-0.107-0.319-0.096-0.48 0.014-0.16 0.067-0.306 0.157-0.439 0.093-0.133 0.221-0.239 0.384-0.316 0.165-0.078 0.328-0.11 0.488-0.096s0.305 0.067 0.436 0.159c0.13 0.092 0.234 0.218 0.31 0.38 0.077 0.163 0.11 0.324 0.098 0.483-0.011 0.161-0.062 0.307-0.154 0.437-0.091 0.132-0.219 0.238-0.384 0.316-0.163 0.077-0.326 0.109-0.488 0.096-0.159-0.012-0.306-0.064-0.439-0.157-0.131-0.094-0.235-0.222-0.311-0.383zM27.64 10.832c0.056 0.119 0.132 0.213 0.228 0.28 0.098 0.066 0.207 0.103 0.328 0.11 0.124 0.008 0.25-0.018 0.377-0.078 0.13-0.061 0.23-0.142 0.3-0.242 0.072-0.098 0.112-0.205 0.12-0.322 0.011-0.118-0.011-0.235-0.067-0.352s-0.132-0.209-0.23-0.275c-0.096-0.067-0.205-0.105-0.327-0.114s-0.248 0.017-0.377 0.078c-0.128 0.060-0.228 0.141-0.3 0.242-0.071 0.1-0.111 0.209-0.122 0.326-0.009 0.117 0.014 0.233 0.068 0.348z"></path>
      <path d="M28.225 12.61c-0.035 0.142-0.032 0.288 0.009 0.44 0.046 0.167 0.125 0.306 0.237 0.417 0.113 0.113 0.246 0.189 0.401 0.228s0.321 0.034 0.5-0.015c0.176-0.048 0.321-0.129 0.434-0.242 0.115-0.113 0.191-0.247 0.228-0.401 0.040-0.152 0.036-0.312-0.010-0.48-0.042-0.154-0.115-0.283-0.218-0.386-0.091-0.091-0.201-0.156-0.33-0.193l0.345-0.095-0.063-0.227-2.405 0.662 0.065 0.238 0.98-0.27c-0.084 0.097-0.142 0.205-0.173 0.325zM28.617 13.287c-0.083-0.083-0.141-0.187-0.176-0.312s-0.037-0.245-0.009-0.361c0.031-0.114 0.090-0.214 0.176-0.3 0.090-0.085 0.202-0.146 0.338-0.183s0.263-0.042 0.381-0.015c0.119 0.030 0.22 0.086 0.305 0.168 0.086 0.084 0.146 0.189 0.18 0.314s0.036 0.244 0.005 0.358c-0.031 0.114-0.090 0.214-0.176 0.3s-0.198 0.148-0.334 0.185-0.264 0.042-0.385 0.012c-0.119-0.030-0.22-0.086-0.305-0.168z"></path>
    </symbol>
    <symbol id="btn-arrow" viewBox="0 0 32 32">
      <path d="M11.079 18.921c-0.090 0.056-0.118 0.175-0.061 0.266s0.175 0.118 0.266 0.061l-0.204-0.327zM21.177 12.999c0.024-0.104-0.041-0.207-0.144-0.231l-1.69-0.39c-0.104-0.024-0.207 0.041-0.231 0.144s0.041 0.207 0.144 0.231l1.503 0.347-0.347 1.503c-0.024 0.104 0.041 0.207 0.144 0.231s0.207-0.041 0.231-0.144l0.39-1.69zM11.283 19.248l9.809-6.129-0.204-0.327-9.809 6.129 0.204 0.327z"></path>
    </symbol>
<symbol id="icon-burger" viewBox="0 0 32 32"><path d="M4 5.333h24V8H4V5.333zm8 9.334h16v2.667H12v-2.667zM4 24h24v2.667H4V24z"/></symbol>
<symbol id="icon-checked" viewBox="0 0 32 32"><path fill="#3cbc81" d="M0 16C0 7.163 7.163 0 16 0s16 7.163 16 16-7.163 16-16 16S0 24.837 0 16zm23.237-2.763c.315-.317.51-.754.51-1.237s-.195-.92-.511-1.237c-.317-.315-.754-.51-1.237-.51s-.92.195-1.237.511l-6.763 6.762-2.763-2.762c-.317-.315-.754-.51-1.237-.51s-.92.195-1.237.511c-.315.317-.51.754-.51 1.237s.195.92.511 1.237l4 4c.317.315.754.51 1.237.51s.92-.195 1.237-.511l8-8z" style="fill:var(--color1, #3cbc81)"/></symbol>
<symbol id="icon-close" viewBox="0 0 32 32"><path fill="none" stroke-linecap="round" stroke-linejoin="round" stroke-width="2.667" d="M24 8 8 24M8 8l16 16" /></symbol>
<symbol id="icon-Error-logo" viewBox="0 0 32 32"><path fill="#e74a3b" d="M0 16C0 7.163 7.163 0 16 0s16 7.163 16 16-7.163 16-16 16S0 24.837 0 16zm10.938-2.994 2.944 2.938-2.944 2.992c-.581.589-.581 1.539 0 2.07.587.637 1.536.637 2.069 0l2.938-2.888 2.992 2.888c.589.637 1.539.637 2.07 0 .637-.531.637-1.482 0-2.069l-2.888-2.994 2.888-2.938c.637-.531.637-1.482 0-2.069-.531-.581-1.482-.581-2.069 0l-2.994 2.944-2.938-2.944c-.531-.581-1.482-.581-2.069 0-.581.587-.581 1.536 0 2.069z" style="fill:var(--color3, #e74a3b)"/></symbol>
<symbol id="icon-facebook" viewBox="0 0 32 32"><path fill="none" stroke="#fff" stroke-linecap="round" stroke-linejoin="round" stroke-width="2.286" d="M24 2.666h-4a6.666 6.666 0 0 0-6.666 6.666v4.001h-4v5.333h4v10.667h5.334V18.666h4l1.333-5.333h-5.333v-4c0-.736.596-1.333 1.332-1.334h4V2.665z" style="stroke:var(--color2, #fff)"/></symbol>
<symbol id="icon-instagram" viewBox="0 0 32 32"><path fill="none" stroke="#fff" stroke-linecap="round" stroke-linejoin="round" stroke-width="2.286" d="M22.666 2.666H9.332a6.666 6.666 0 0 0-6.666 6.666V22.667a6.666 6.666 0 0 0 6.666 6.666h13.334a6.666 6.666 0 0 0 6.666-6.666v-.001 0V9.332a6.666 6.666 0 0 0-6.666-6.666v0z" style="stroke:var(--color2, #fff)"/><path fill="none" stroke="#fff" stroke-linecap="round" stroke-linejoin="round" stroke-width="2.286" d="M21.334 15.16a5.334 5.334 0 1 1-10.548 1.594l-.004-.029A5.334 5.334 0 0 1 21.33 15.13l.004.03zm2-6.494h.013" style="stroke:var(--color2, #fff)"/></symbol>
<symbol id="icon-logo" viewBox="0 0 32 32"><path d="M13.081 28.274v-4.068l-.105-.666v-6.803c0-1.566-.444-2.77-1.333-3.612-.865-.842-2.162-1.262-3.893-1.262-1.192 0-2.326.199-3.402.596s-1.987.924-2.735 1.578L.491 12.178c.935-.795 2.057-1.403 3.367-1.824a12.793 12.793 0 0 1 4.138-.666c2.385 0 4.22.596 5.506 1.789 1.309 1.169 1.964 2.958 1.964 5.365v11.432h-2.385zm-6.348.175c-1.38 0-2.583-.222-3.612-.666-1.005-.468-1.777-1.099-2.315-1.894-.538-.818-.807-1.753-.807-2.805 0-.959.222-1.824.666-2.595.468-.795 1.216-1.426 2.244-1.894 1.052-.491 2.455-.736 4.208-.736h6.347v1.859H7.187c-1.777 0-3.016.316-3.717.947-.678.631-1.017 1.415-1.017 2.35 0 1.052.409 1.894 1.227 2.525s1.964.947 3.437.947c1.403 0 2.607-.316 3.612-.947 1.029-.654 1.777-1.59 2.244-2.805l.561 1.718c-.468 1.216-1.286 2.186-2.455 2.911-1.145.725-2.595 1.087-4.348 1.087z"/><path d="M23.391 28.449c-1.917 0-3.601-.398-5.05-1.192-1.45-.818-2.584-1.929-3.402-3.332-.818-1.426-1.227-3.051-1.227-4.875s.386-3.437 1.157-4.839c.795-1.403 1.87-2.502 3.226-3.296 1.379-.818 2.922-1.227 4.629-1.227 1.73 0 3.261.398 4.594 1.192 1.356.771 2.42 1.87 3.191 3.296.771 1.403 1.157 3.028 1.157 4.875 0 .117-.012.245-.035.386v.386H15.605v-1.859h14.694l-.982.736c0-1.333-.292-2.513-.877-3.542-.561-1.052-1.333-1.87-2.315-2.455s-2.116-.877-3.402-.877c-1.262 0-2.396.292-3.402.877s-1.788 1.403-2.35 2.455-.842 2.256-.842 3.612v.386c0 1.403.304 2.642.912 3.717a6.811 6.811 0 0 0 2.595 2.49c1.122.584 2.396.877 3.822.877 1.122 0 2.162-.199 3.121-.596a6.489 6.489 0 0 0 2.525-1.824l1.403 1.613c-.818.982-1.847 1.73-3.086 2.244-1.216.514-2.56.771-4.033.771zM29.633 5.918H17.359v-2.63h12.274v2.63z"/></symbol>
<symbol id="icon-tel" viewBox="0 0 32 32"><path d="m26.331 6.267-3.346-3.344c-.392-.394-.934-.638-1.534-.638s-1.142.244-1.534.638l-3.606 3.599c-.394.393-.638.936-.638 1.537s.244 1.144.638 1.537l2.816 2.818a12.813 12.813 0 0 1-2.715 4 12.798 12.798 0 0 1-3.916 2.69l-.082.032-2.815-2.819c-.392-.394-.934-.638-1.534-.638s-1.142.244-1.534.638l-3.608 3.599c-.394.393-.638.936-.638 1.537s.244 1.144.638 1.537l3.344 3.343a3.765 3.765 0 0 0 2.647 1.097c.205 0 .402-.016.603-.05 4.16-.686 8.29-2.901 11.625-6.232 3.331-3.337 5.544-7.466 6.235-11.63a3.732 3.732 0 0 0-1.047-3.249zM25.15 9.143c-.613 3.705-2.606 7.4-5.607 10.401s-6.694 4.994-10.4 5.606a1.474 1.474 0 0 1-1.281-.415l-3.285-3.283 3.482-3.486 3.793 3.8.679-.251c4.177-1.566 7.414-4.803 8.945-8.876l.034-.104.251-.679-3.797-3.794 3.482-3.483 3.285 3.283c.339.339.496.817.417 1.282z"/></symbol>
<symbol id="icon-footer-logo" viewBox="0 0 78 58"><path d="M18.72 14.2C24.5867 14.2 29.0667 15.64 32.16 18.52C35.3067 21.4 36.88 25.6933 36.88 31.4V57H29.6V51.4C28.32 53.3733 26.48 54.8933 24.08 55.96C21.7333 56.9733 18.9333 57.48 15.68 57.48C10.9333 57.48 7.12 56.3333 4.24 54.04C1.41333 51.7466 0 48.7333 0 45C0 41.2666 1.36 38.28 4.08 36.04C6.8 33.7466 11.12 32.6 17.04 32.6H29.2V31.08C29.2 27.7733 28.24 25.24 26.32 23.4799C24.4 21.72 21.5733 20.84 17.84 20.84C15.3333 20.84 12.88 21.2666 10.48 22.12C8.08 22.92 6.05333 24.0133 4.4 25.4L1.2 19.64C3.38667 17.88 6 16.5466 9.04 15.64C12.08 14.68 15.3067 14.2 18.72 14.2ZM16.96 51.56C19.8933 51.56 22.4267 50.92 24.56 49.64C26.6933 48.3066 28.24 46.44 29.2 44.04V38.12H17.36C10.8533 38.12 7.6 40.3066 7.6 44.68C7.6 46.8133 8.42667 48.4933 10.08 49.72C11.7333 50.9466 14.0267 51.56 16.96 51.56Z" fill="white"/>
<path d="M73.5999 36.04C73.5999 36.6266 73.5465 37.4 73.4399 38.36H39.0399C39.5199 42.0933 41.1465 45.1066 43.9199 47.4C46.7465 49.64 50.2399 50.76 54.3999 50.76C59.4665 50.76 63.5465 49.0533 66.6399 45.64L70.8799 50.6C68.9599 52.84 66.5599 54.5466 63.6799 55.72C60.8532 56.8933 57.6799 57.48 54.1599 57.48C49.6799 57.48 45.7065 56.5733 42.2399 54.76C38.7732 52.8933 36.0799 50.3066 34.1599 47C32.2932 43.6933 31.3599 39.96 31.3599 35.8C31.3599 31.6933 32.2665 27.9866 34.0799 24.68C35.9465 21.3733 38.4799 18.8133 41.6799 17C44.9332 15.1333 48.5865 14.2 52.6399 14.2C56.6932 14.2 60.2932 15.1333 63.4399 17C66.6399 18.8133 69.1199 21.3733 70.8799 24.68C72.6932 27.9866 73.5999 31.7733 73.5999 36.04ZM52.6399 20.68C48.9599 20.68 45.8665 21.8 43.3599 24.04C40.9065 26.28 39.4665 29.2133 39.0399 32.84H66.2399C65.8132 29.2666 64.3465 26.36 61.8399 24.12C59.3865 21.8266 56.3199 20.68 52.6399 20.68Z" fill="white"/>
<path fill-rule="evenodd" clip-rule="evenodd" d="M68 6H40V0H68V6Z" fill="white"/></symbol>
</defs></svg>